<svg id="Layer_1" data-name="Layer 1" xmlns="http://www.w3.org/2000/svg" viewBox="0 0 2000 523.81"><defs><style>.cls-1{fill:#fff;}</style></defs><path class="cls-1" d="M503,84.89Q464,70.29,427.21,53.26t-75.77-33A857.84,857.84,0,0,0,242,32.75q-53.88,9.75-107,21.2T25.42,75.85l-4.86,25v20.85l179.34,27.8-26.41-3.47q-10.43-1.38-16.69,3.13a69.33,69.33,0,0,1-12.51,7.3,78.46,78.46,0,0,0-14.6,9,908.16,908.16,0,0,1-15.64,93.15A440.2,440.2,0,0,1,84.16,347q-19.8,43.11-35.8,88.28v7L76.17,468.6l283.61-77.16q26.42-43.79,52.49-82.72a289.67,289.67,0,0,1,65-68.82,650.42,650.42,0,0,0,73-65.34l4.17-6.26h2.78l21.55-32.67L576,127.29A258.82,258.82,0,0,0,503,84.89ZM425.82,65.08q35.44,16.33,71.6,30.23a269.35,269.35,0,0,1,37.18,17.63L384.81,54.3,374.28,43.45Q397.91,52.24,425.82,65.08ZM122,125l82.77,1.63L202,139.8V137Zm74.43,37.08-2.78,9.73V169l-15.3-1.39-3.4-8.09Zm-5.56,19.46-.45,1.94-1.69-1.94ZM74.78,451.79,61.57,437.32A750.22,750.22,0,0,1,96,352.51a410.63,410.63,0,0,0,30.59-89.67,772.19,772.19,0,0,0,14.25-91.06l21.67-11.51c.94,2.34,2.51,6,4.74,11.16a53.91,53.91,0,0,0,9.38,14.6q5.91,6.61,12.87,15.64h9.73l19.46-73v-14.6L33.76,109.91,35.16,87q48-9,100.44-19.81t104.27-20.5A989,989,0,0,1,343.79,32.75h2.78l23.64,25.72v.7a297.48,297.48,0,0,1-58,81q-36.5,36.49-72,74.73t-74.38,73.68Zm278-72.86L90.35,452.18l80.36-150.41,241.14-18Zm70.9-109.14L192.26,287.87h-4.87l43.1-44.49,219.66,2.78Zm42.42-36.15-221.06-2.77,105-113.31,187.69,49.35Zm83.59-77.29L358.39,105.74c.46-2.31,2.2-5.91,5.22-10.77s6.13-9.84,9.38-15a92.86,92.86,0,0,0,6.95-12.51q27.1,9,59.09,21.2t64.3,24.68q32.32,12.51,58,22.94Z"/><path class="cls-1" d="M1263.45,117.56l-208.54-82q-50,4.17-98,11.82T860.63,63Q812.3,71,760.18,82.11l1.39,41.71,162.66,64-115.39,219,32,35.46L1112.61,372q32-36.14,59.44-71.6a877.43,877.43,0,0,1,60.82-70.21q33.36-34.75,30.58-84.11ZM840.12,429.67V422l-16-14.6,114.7-218.27v-7.65L772.69,116.17l1.39-25q39.63-7.64,85.15-14.94t90.72-15q45.18-7.64,90.37-13.2h4.86q6.25,77.16-31.62,137.28T930.14,305.94Q884.6,366.42,840.12,429.67Zm267.63-70.2L860.2,425.75l185.68-260.92,194.64,31.28Zm139.18-174.11-195.49-33,4.86-102.19,194.64,75.77Z"/><path class="cls-1" d="M1766.73,151.62l141.81-9-1.39-32.67L1668,27.19,1481.73,51.52l1.39,43.79ZM1671.5,43.18q33.36,9,71.94,23.29t78.21,27.45q39.61,13.22,74.38,26.42v8.34L1671.5,65.42Zm63.26,54.22q39.62,11.13,78.55,22.24t61.17,13.21l-93.15,6.26q-46.57-6.95-92.8-16t-92.8-18.07Q1561,98.32,1527.8,91.57l129.8-13.63Q1695.13,86.28,1734.76,97.4ZM1494.24,61.25l164-21.55h.7V66.12L1498.41,83.5h-4.17Z"/><path class="cls-1" d="M1977.36,204.45q-39.63-18.06-79.94-22.24t-79.25-10.43q-38.94-6.25-78.55-11.82-47.28,1.41-93.49,5.56T1553,173.86q-46.92,4.19-97.67,10.43v41l164,61.18L1538,451.22q0,10.42,5.56,16t9.74,10.43q4.17,4.88,9,11.12l5.56,3.48,266.24-89.68q29.19-28.49,57.35-57t56-58.74a120.7,120.7,0,0,0,32-71.25Zm-84.11-9.73q13.24,1.47,25.1,3.73-13.56-1.68-27.54-3.73c-5.21-.77-10.43-1.47-15.64-2.14Q1884.2,193.71,1893.25,194.72Zm-75.08-10.43q26.79,4.47,53.58,7.85-28.35-3.49-56.71-5.07-27.21-1.5-49.21-10.54Q1790.28,179.65,1818.17,184.29ZM1551.94,457.48l83.41-171v-8.35l-167.53-62.56V194q38.23-3.47,81-7.64T1634,178q42.39-4.17,85.5-5.57,9.74-2.08,16.34,1.39t13.9,8.35q7.3,4.86,12.17,8.34-4.18,59.08-39.63,105t-76.46,91.41q-39.67,44-77.37,88.41Zm276.66-66-241.14,81.5L1742.4,292.73q31.29-4.85,66.73-7t69.86-4.86l60.18-4.89Zm123-129.29q-28.52,3.48-61.52,5.56l-66.39,4.17q-33.36,2.08-64.65,4.86h-6.95L1773,194l192.55,22.25Z"/></svg>