<svg id="Layer_1" data-name="Layer 1" xmlns="http://www.w3.org/2000/svg" viewBox="0 0 372.76 105.2"><defs><style>.cls-1{fill:#f7f7f7;}</style></defs><path class="cls-1" d="M62.55,53.27S71.83,47,76.68,38.61c2.55-4.44,3.23-11.17,3.36-16.14H0V0H104.25l-.13,22.47a70.35,70.35,0,0,1-8.88,29.19C85.69,69.28,62.55,78.29,62.55,78.29ZM6.86,84.35A37,37,0,0,0,28.12,68.61c7.93-12,7.26-26.24,7.26-33.63h25c-.13.13,2.29,23.54-11.43,44.39C36.46,98.34,6.05,105.2,6.05,105.2Z"/><path class="cls-1" d="M153,81.92s26.64-5.11,41.17-21.79c9.95-11.57,12.78-28.11,13-38.47H139.37V-.67H236a240.73,240.73,0,0,1-4,36.72c-4.17,21.12-10.9,33-26.1,45.87C187.39,97.53,153,105.06,153,105.06Z"/><path class="cls-1" d="M280.75,86a159.8,159.8,0,0,0,37-14.13c12.38-6.45,19.78-14,24.08-22.19h-72V27.17H372.76s-.67,15.34-5,26.37c-6.72,16.81-18,26.37-35.64,35.92-20.59,11.16-51.39,15.74-51.39,15.74ZM279.67-2.42h83.41V20H279.67Z"/></svg>